<?xml version="1.0" ?><svg enable-background="new 0 0 500 500" id="Layer_1" version="1.1" viewBox="0 0 500 500" xml:space="preserve" xmlns="http://www.w3.org/2000/svg" xmlns:xlink="http://www.w3.org/1999/xlink"><g><g><polygon points="469,360 414.3,360 414.3,332.6 441.6,332.6 441.6,252.7 418.1,182.1 318.4,182.1 318.4,332.6 332.1,332.6     332.1,360 291.1,360 291.1,154.7 437.8,154.7 469,248.3   "/></g><g><path d="M373.2,401.1c-30.2,0-54.8-24.6-54.8-54.8c0-30.2,24.6-54.8,54.8-54.8c30.2,0,54.8,24.6,54.8,54.8    C427.9,376.5,403.4,401.1,373.2,401.1z M373.2,318.9c-15.1,0-27.4,12.3-27.4,27.4c0,15.1,12.3,27.4,27.4,27.4    c15.1,0,27.4-12.3,27.4-27.4C400.6,331.2,388.3,318.9,373.2,318.9z"/></g><g><polygon points="113.1,360 58.4,360 58.4,264.2 85.7,264.2 85.7,332.6 113.1,332.6   "/></g><g><polygon points="318.4,360 195.2,360 195.2,332.6 291.1,332.6 291.1,127.3 31,127.3 31,99.9 318.4,99.9   "/></g><g><path d="M154.2,401.1c-30.2,0-54.8-24.6-54.8-54.8c0-30.2,24.6-54.8,54.8-54.8s54.8,24.6,54.8,54.8    C208.9,376.5,184.4,401.1,154.2,401.1z M154.2,318.9c-15.1,0-27.4,12.3-27.4,27.4c0,15.1,12.3,27.4,27.4,27.4s27.4-12.3,27.4-27.4    C181.6,331.2,169.3,318.9,154.2,318.9z"/></g><g><rect height="27.4" width="123.2" x="44.7" y="154.7"/></g><g><rect height="27.4" width="82.1" x="58.4" y="209.4"/></g></g></svg>